0
SECTION
2
HEADER
9
$INSUNITS
70
4
9
$ACADVER
1
AC1014
9
$HANDSEED
5
FFFF
0
ENDSEC
0
SECTION
2
TABLES
0
TABLE
2
VPORT
5
8
100
AcDbSymbolTable
0
ENDTAB
0
TABLE
2
LTYPE
5
5
100
AcDbSymbolTable
0
LTYPE
5
14
100
AcDbSymbolTableRecord
100
AcDbLinetypeTableRecord
2
BYBLOCK
70
0
0
LTYPE
5
15
100
AcDbSymbolTableRecord
100
AcDbLinetypeTableRecord
2
BYLAYER
70
0
0
ENDTAB
0
TABLE
2
LAYER
5
2
100
AcDbSymbolTable
70
2
0
LAYER
5
50
100
AcDbSymbolTableRecord
100
AcDbLayerTableRecord
2
0
70
0
6
CONTINUOUS
0
ENDTAB
0
TABLE
2
STYLE
5
3
100
AcDbSymbolTable
70
1
0
STYLE
5
11
100
AcDbSymbolTableRecord
100
AcDbTextStyleTableRecord
2
STANDARD
70
0
0
ENDTAB
0
TABLE
2
VIEW
5
6
100
AcDbSymbolTable
70
0
0
ENDTAB
0
TABLE
2
UCS
5
7
100
AcDbSymbolTable
70
0
0
ENDTAB
0
TABLE
2
APPID
5
9
100
AcDbSymbolTable
70
2
0
APPID
5
12
100
AcDbSymbolTableRecord
100
AcDbRegAppTableRecord
2
ACAD
70
0
0
ENDTAB
0
TABLE
2
DIMSTYLE
5
A
100
AcDbSymbolTable
70
1
0
ENDTAB
0
TABLE
2
BLOCK_RECORD
5
1
100
AcDbSymbolTable
70
1
0
BLOCK_RECORD
5
1F
100
AcDbSymbolTableRecord
100
AcDbBlockTableRecord
2
*MODEL_SPACE
0
BLOCK_RECORD
5
1B
100
AcDbSymbolTableRecord
100
AcDbBlockTableRecord
2
*PAPER_SPACE
0
ENDTAB
0
ENDSEC
0
SECTION
2
BLOCKS
0
BLOCK
5
20
100
AcDbEntity
100
AcDbBlockBegin
2
*MODEL_SPACE
0
ENDBLK
5
21
100
AcDbEntity
100
AcDbBlockEnd
0
BLOCK
5
1C
100
AcDbEntity
100
AcDbBlockBegin
2
*PAPER_SPACE
0
ENDBLK
5
1D
100
AcDbEntity
100
AcDbBlockEnd
0
ENDSEC
0
SECTION
2
ENTITIES
0
CIRCLE
5
100
100
AcDbEntity
8
0
100
AcDbCircle
10
24.988143679460926
20
77.497937318570919
30
0
40
2.4999999999999956
0
CIRCLE
5
101
100
AcDbEntity
8
0
100
AcDbCircle
10
24.988143679566825
20
-113.50206268142898
30
0
40
2.4999999999999822
0
CIRCLE
5
102
100
AcDbEntity
8
0
100
AcDbCircle
10
104.98814367946088
20
77.497937318571047
30
0
40
2.5000000000000178
0
CIRCLE
5
103
100
AcDbEntity
8
0
100
AcDbCircle
10
104.98814367946099
20
-113.5020626814289
30
0
40
2.5
0
CIRCLE
5
104
100
AcDbEntity
8
0
100
AcDbCircle
10
-39.323535316408574
20
3.471319668842618
30
0
40
2.5000000000000044
0
CIRCLE
5
105
100
AcDbEntity
8
0
100
AcDbCircle
10
0.6715299828578416
20
4.0996123613154785
30
0
40
2.5000000000000004
0
CIRCLE
5
106
100
AcDbEntity
8
0
100
AcDbCircle
10
-38.695242623935727
20
-36.52374563042379
30
0
40
2.5
0
CIRCLE
5
107
100
AcDbEntity
8
0
100
AcDbCircle
10
1.2998226753306921
20
-35.895452937950928
30
0
40
2.4999999999999996
0
LWPOLYLINE
5
108
100
AcDbEntity
8
0
100
AcDbPolyline
90
20
70
1
43
0.0
10
-59.011856320539103
20
-84.502062681455186
10
-59.011856320538747
20
48.497937318543556
10
0.98814367946125081
20
48.497937318543585
10
0.98814367946177484
20
93.497937318543592
10
116.98814367946179
20
93.497937318543592
10
144.00000000040754
20
66.486080997598151
10
144.00000000027273
20
44.486080997597526
42
-0.19891236737972481
10
136.67766952982643
20
26.808411467972615
10
134.18952585020705
20
24.320267788365264
42
-0.19891236737971743
10
116.51185632048015
20
16.9979373181284
10
74.000000000000014
20
16.997937318392744
10
74
20
-53.002062681294163
10
116.51185631955754
20
-53.002062681280165
42
-0.19891236737966261
10
134.18952584925415
20
-60.32439315162933
10
136.67766952916662
20
-62.812536831542623
42
-0.19891236738126433
10
143.99999999950282
20
-80.490206361360634
10
143.99999999936685
20
-102.49020636136063
10
116.9881436794609
20
-129.50206268132735
10
0.98814367946090664
20
-129.50206268146329
10
0.98814367946089554
20
-84.502062681463315
0
CIRCLE
5
109
100
AcDbEntity
8
0
100
AcDbCircle
10
24.988143679566825
20
-98.002062681428981
30
0
40
2.5
0
CIRCLE
5
110
100
AcDbEntity
8
0
100
AcDbCircle
10
44.988143679566825
20
-98.002062681428981
30
0
40
2.5
0
LINE
5
111
100
AcDbEntity
8
0
100
AcDbLine
10
163.99999999936685
20
-102.49020636136063
30
0
11
163.99999999950282
21
-80.490206361360634
31
0
0
CIRCLE
5
112
100
AcDbEntity
8
0
100
AcDbCircle
10
64.988143679566818
20
-98.002062681428981
30
0
40
2.5
0
LINE
5
113
100
AcDbEntity
8
0
100
AcDbLine
10
183.99999999936685
20
-102.49020636136063
30
0
11
183.99999999950282
21
-80.490206361360634
31
0
0
CIRCLE
5
114
100
AcDbEntity
8
0
100
AcDbCircle
10
84.988143679566832
20
-98.002062681428981
30
0
40
2.5
0
LINE
5
115
100
AcDbEntity
8
0
100
AcDbLine
10
203.99999999936685
20
-102.49020636136063
30
0
11
203.99999999950282
21
-80.490206361360634
31
0
0
CIRCLE
5
116
100
AcDbEntity
8
0
100
AcDbCircle
10
104.98814367956683
20
-98.002062681428981
30
0
40
2.5
0
LINE
5
117
100
AcDbEntity
8
0
100
AcDbLine
10
223.99999999936685
20
-102.49020636136063
30
0
11
223.99999999950282
21
-80.490206361360634
31
0
0
CIRCLE
5
118
100
AcDbEntity
8
0
100
AcDbCircle
10
124.98814367956683
20
-98.002062681428981
30
0
40
2.5
0
LINE
5
119
100
AcDbEntity
8
0
100
AcDbLine
10
243.99999999936685
20
-102.49020636136063
30
0
11
243.99999999950282
21
-80.490206361360634
31
0
0
CIRCLE
5
120
100
AcDbEntity
8
0
100
AcDbCircle
10
24.988143679566825
20
-78.002062681428981
30
0
40
2.5
0
LINE
5
121
100
AcDbEntity
8
0
100
AcDbLine
10
143.99999999936685
20
-82.490206361360634
30
0
11
143.99999999950282
21
-60.490206361360634
31
0
0
CIRCLE
5
122
100
AcDbEntity
8
0
100
AcDbCircle
10
44.988143679566825
20
-78.002062681428981
30
0
40
2.5
0
LINE
5
123
100
AcDbEntity
8
0
100
AcDbLine
10
163.99999999936685
20
-82.490206361360634
30
0
11
163.99999999950282
21
-60.490206361360634
31
0
0
CIRCLE
5
124
100
AcDbEntity
8
0
100
AcDbCircle
10
64.988143679566818
20
-78.002062681428981
30
0
40
2.5
0
LINE
5
125
100
AcDbEntity
8
0
100
AcDbLine
10
183.99999999936685
20
-82.490206361360634
30
0
11
183.99999999950282
21
-60.490206361360634
31
0
0
CIRCLE
5
126
100
AcDbEntity
8
0
100
AcDbCircle
10
84.988143679566832
20
-78.002062681428981
30
0
40
2.5
0
LINE
5
127
100
AcDbEntity
8
0
100
AcDbLine
10
203.99999999936685
20
-82.490206361360634
30
0
11
203.99999999950282
21
-60.490206361360634
31
0
0
CIRCLE
5
128
100
AcDbEntity
8
0
100
AcDbCircle
10
104.98814367956683
20
-78.002062681428981
30
0
40
2.5
0
LINE
5
129
100
AcDbEntity
8
0
100
AcDbLine
10
223.99999999936685
20
-82.490206361360634
30
0
11
223.99999999950282
21
-60.490206361360634
31
0
0
CIRCLE
5
130
100
AcDbEntity
8
0
100
AcDbCircle
10
124.98814367956683
20
-78.002062681428981
30
0
40
2.5
0
LINE
5
131
100
AcDbEntity
8
0
100
AcDbLine
10
243.99999999936685
20
-82.490206361360634
30
0
11
243.99999999950282
21
-60.490206361360634
31
0
0
CIRCLE
5
132
100
AcDbEntity
8
0
100
AcDbCircle
10
24.988143679566825
20
-58.002062681428974
30
0
40
2.5
0
LINE
5
133
100
AcDbEntity
8
0
100
AcDbLine
10
143.99999999936685
20
-62.490206361360627
30
0
11
143.99999999950282
21
-40.490206361360634
31
0
0
CIRCLE
5
134
100
AcDbEntity
8
0
100
AcDbCircle
10
44.988143679566825
20
-58.002062681428974
30
0
40
2.5
0
LINE
5
135
100
AcDbEntity
8
0
100
AcDbLine
10
163.99999999936685
20
-62.490206361360627
30
0
11
163.99999999950282
21
-40.490206361360634
31
0
0
CIRCLE
5
136
100
AcDbEntity
8
0
100
AcDbCircle
10
64.988143679566818
20
-58.002062681428974
30
0
40
2.5
0
LINE
5
137
100
AcDbEntity
8
0
100
AcDbLine
10
183.99999999936685
20
-62.490206361360627
30
0
11
183.99999999950282
21
-40.490206361360634
31
0
0
CIRCLE
5
138
100
AcDbEntity
8
0
100
AcDbCircle
10
84.988143679566832
20
-58.002062681428974
30
0
40
2.5
0
LINE
5
139
100
AcDbEntity
8
0
100
AcDbLine
10
203.99999999936685
20
-62.490206361360627
30
0
11
203.99999999950282
21
-40.490206361360634
31
0
0
CIRCLE
5
140
100
AcDbEntity
8
0
100
AcDbCircle
10
104.98814367956683
20
-58.002062681428974
30
0
40
2.5
0
LINE
5
141
100
AcDbEntity
8
0
100
AcDbLine
10
223.99999999936685
20
-62.490206361360627
30
0
11
223.99999999950282
21
-40.490206361360634
31
0
0
CIRCLE
5
142
100
AcDbEntity
8
0
100
AcDbCircle
10
124.98814367956683
20
-58.002062681428974
30
0
40
2.5
0
LINE
5
143
100
AcDbEntity
8
0
100
AcDbLine
10
243.99999999936685
20
-62.490206361360627
30
0
11
243.99999999950282
21
-40.490206361360634
31
0
0
CIRCLE
5
144
100
AcDbEntity
8
0
100
AcDbCircle
10
24.988143679566825
20
-38.002062681428974
30
0
40
2.5
0
LINE
5
145
100
AcDbEntity
8
0
100
AcDbLine
10
143.99999999936685
20
-42.490206361360627
30
0
11
143.99999999950282
21
-20.490206361360634
31
0
0
CIRCLE
5
146
100
AcDbEntity
8
0
100
AcDbCircle
10
44.988143679566825
20
-38.002062681428974
30
0
40
2.5
0
LINE
5
147
100
AcDbEntity
8
0
100
AcDbLine
10
163.99999999936685
20
-42.490206361360627
30
0
11
163.99999999950282
21
-20.490206361360634
31
0
0
CIRCLE
5
148
100
AcDbEntity
8
0
100
AcDbCircle
10
64.988143679566818
20
-38.002062681428974
30
0
40
2.5
0
LINE
5
149
100
AcDbEntity
8
0
100
AcDbLine
10
183.99999999936685
20
-42.490206361360627
30
0
11
183.99999999950282
21
-20.490206361360634
31
0
0
CIRCLE
5
150
100
AcDbEntity
8
0
100
AcDbCircle
10
84.988143679566832
20
-38.002062681428974
30
0
40
2.5
0
LINE
5
151
100
AcDbEntity
8
0
100
AcDbLine
10
203.99999999936685
20
-42.490206361360627
30
0
11
203.99999999950282
21
-20.490206361360634
31
0
0
CIRCLE
5
152
100
AcDbEntity
8
0
100
AcDbCircle
10
104.98814367956683
20
-38.002062681428974
30
0
40
2.5
0
LINE
5
153
100
AcDbEntity
8
0
100
AcDbLine
10
223.99999999936685
20
-42.490206361360627
30
0
11
223.99999999950282
21
-20.490206361360634
31
0
0
CIRCLE
5
154
100
AcDbEntity
8
0
100
AcDbCircle
10
124.98814367956683
20
-38.002062681428974
30
0
40
2.5
0
LINE
5
155
100
AcDbEntity
8
0
100
AcDbLine
10
243.99999999936685
20
-42.490206361360627
30
0
11
243.99999999950282
21
-20.490206361360634
31
0
0
CIRCLE
5
156
100
AcDbEntity
8
0
100
AcDbCircle
10
24.988143679566825
20
-18.002062681428974
30
0
40
2.5
0
LINE
5
157
100
AcDbEntity
8
0
100
AcDbLine
10
143.99999999936685
20
-22.490206361360627
30
0
11
143.99999999950282
21
-0.49020636136063445
31
0
0
CIRCLE
5
158
100
AcDbEntity
8
0
100
AcDbCircle
10
44.988143679566825
20
-18.002062681428974
30
0
40
2.5
0
LINE
5
159
100
AcDbEntity
8
0
100
AcDbLine
10
163.99999999936685
20
-22.490206361360627
30
0
11
163.99999999950282
21
-0.49020636136063445
31
0
0
CIRCLE
5
160
100
AcDbEntity
8
0
100
AcDbCircle
10
64.988143679566818
20
-18.002062681428974
30
0
40
2.5
0
LINE
5
161
100
AcDbEntity
8
0
100
AcDbLine
10
183.99999999936685
20
-22.490206361360627
30
0
11
183.99999999950282
21
-0.49020636136063445
31
0
0
CIRCLE
5
162
100
AcDbEntity
8
0
100
AcDbCircle
10
84.988143679566832
20
-18.002062681428974
30
0
40
2.5
0
LINE
5
163
100
AcDbEntity
8
0
100
AcDbLine
10
203.99999999936685
20
-22.490206361360627
30
0
11
203.99999999950282
21
-0.49020636136063445
31
0
0
CIRCLE
5
164
100
AcDbEntity
8
0
100
AcDbCircle
10
104.98814367956683
20
-18.002062681428974
30
0
40
2.5
0
LINE
5
165
100
AcDbEntity
8
0
100
AcDbLine
10
223.99999999936685
20
-22.490206361360627
30
0
11
223.99999999950282
21
-0.49020636136063445
31
0
0
CIRCLE
5
166
100
AcDbEntity
8
0
100
AcDbCircle
10
124.98814367956683
20
-18.002062681428974
30
0
40
2.5
0
LINE
5
167
100
AcDbEntity
8
0
100
AcDbLine
10
243.99999999936685
20
-22.490206361360627
30
0
11
243.99999999950282
21
-0.49020636136063445
31
0
0
CIRCLE
5
168
100
AcDbEntity
8
0
100
AcDbCircle
10
24.988143679566825
20
1.9979373185710259
30
0
40
2.5
0
LINE
5
169
100
AcDbEntity
8
0
100
AcDbLine
10
143.99999999936685
20
-2.4902063613606273
30
0
11
143.99999999950282
21
19.509793638639366
31
0
0
CIRCLE
5
170
100
AcDbEntity
8
0
100
AcDbCircle
10
44.988143679566825
20
1.9979373185710259
30
0
40
2.5
0
LINE
5
171
100
AcDbEntity
8
0
100
AcDbLine
10
163.99999999936685
20
-2.4902063613606273
30
0
11
163.99999999950282
21
19.509793638639366
31
0
0
CIRCLE
5
172
100
AcDbEntity
8
0
100
AcDbCircle
10
64.988143679566818
20
1.9979373185710259
30
0
40
2.5
0
LINE
5
173
100
AcDbEntity
8
0
100
AcDbLine
10
183.99999999936685
20
-2.4902063613606273
30
0
11
183.99999999950282
21
19.509793638639366
31
0
0
CIRCLE
5
174
100
AcDbEntity
8
0
100
AcDbCircle
10
84.988143679566832
20
1.9979373185710259
30
0
40
2.5
0
LINE
5
175
100
AcDbEntity
8
0
100
AcDbLine
10
203.99999999936685
20
-2.4902063613606273
30
0
11
203.99999999950282
21
19.509793638639366
31
0
0
CIRCLE
5
176
100
AcDbEntity
8
0
100
AcDbCircle
10
104.98814367956683
20
1.9979373185710259
30
0
40
2.5
0
LINE
5
177
100
AcDbEntity
8
0
100
AcDbLine
10
223.99999999936685
20
-2.4902063613606273
30
0
11
223.99999999950282
21
19.509793638639366
31
0
0
CIRCLE
5
178
100
AcDbEntity
8
0
100
AcDbCircle
10
124.98814367956683
20
1.9979373185710259
30
0
40
2.5
0
LINE
5
179
100
AcDbEntity
8
0
100
AcDbLine
10
243.99999999936685
20
-2.4902063613606273
30
0
11
243.99999999950282
21
19.509793638639366
31
0
0
CIRCLE
5
180
100
AcDbEntity
8
0
100
AcDbCircle
10
24.988143679566825
20
21.997937318571026
30
0
40
2.5
0
LINE
5
181
100
AcDbEntity
8
0
100
AcDbLine
10
143.99999999936685
20
17.509793638639373
30
0
11
143.99999999950282
21
39.509793638639366
31
0
0
CIRCLE
5
182
100
AcDbEntity
8
0
100
AcDbCircle
10
44.988143679566825
20
21.997937318571026
30
0
40
2.5
0
LINE
5
183
100
AcDbEntity
8
0
100
AcDbLine
10
163.99999999936685
20
17.509793638639373
30
0
11
163.99999999950282
21
39.509793638639366
31
0
0
CIRCLE
5
184
100
AcDbEntity
8
0
100
AcDbCircle
10
64.988143679566818
20
21.997937318571026
30
0
40
2.5
0
LINE
5
185
100
AcDbEntity
8
0
100
AcDbLine
10
183.99999999936685
20
17.509793638639373
30
0
11
183.99999999950282
21
39.509793638639366
31
0
0
CIRCLE
5
186
100
AcDbEntity
8
0
100
AcDbCircle
10
84.988143679566832
20
21.997937318571026
30
0
40
2.5
0
LINE
5
187
100
AcDbEntity
8
0
100
AcDbLine
10
203.99999999936685
20
17.509793638639373
30
0
11
203.99999999950282
21
39.509793638639366
31
0
0
CIRCLE
5
188
100
AcDbEntity
8
0
100
AcDbCircle
10
104.98814367956683
20
21.997937318571026
30
0
40
2.5
0
LINE
5
189
100
AcDbEntity
8
0
100
AcDbLine
10
223.99999999936685
20
17.509793638639373
30
0
11
223.99999999950282
21
39.509793638639366
31
0
0
CIRCLE
5
190
100
AcDbEntity
8
0
100
AcDbCircle
10
124.98814367956683
20
21.997937318571026
30
0
40
2.5
0
LINE
5
191
100
AcDbEntity
8
0
100
AcDbLine
10
243.99999999936685
20
17.509793638639373
30
0
11
243.99999999950282
21
39.509793638639366
31
0
0
CIRCLE
5
192
100
AcDbEntity
8
0
100
AcDbCircle
10
24.988143679566825
20
41.997937318571026
30
0
40
2.5
0
LINE
5
193
100
AcDbEntity
8
0
100
AcDbLine
10
143.99999999936685
20
37.509793638639373
30
0
11
143.99999999950282
21
59.509793638639366
31
0
0
CIRCLE
5
194
100
AcDbEntity
8
0
100
AcDbCircle
10
44.988143679566825
20
41.997937318571026
30
0
40
2.5
0
LINE
5
195
100
AcDbEntity
8
0
100
AcDbLine
10
163.99999999936685
20
37.509793638639373
30
0
11
163.99999999950282
21
59.509793638639366
31
0
0
CIRCLE
5
196
100
AcDbEntity
8
0
100
AcDbCircle
10
64.988143679566818
20
41.997937318571026
30
0
40
2.5
0
LINE
5
197
100
AcDbEntity
8
0
100
AcDbLine
10
183.99999999936685
20
37.509793638639373
30
0
11
183.99999999950282
21
59.509793638639366
31
0
0
CIRCLE
5
198
100
AcDbEntity
8
0
100
AcDbCircle
10
84.988143679566832
20
41.997937318571026
30
0
40
2.5
0
LINE
5
199
100
AcDbEntity
8
0
100
AcDbLine
10
203.99999999936685
20
37.509793638639373
30
0
11
203.99999999950282
21
59.509793638639366
31
0
0
CIRCLE
5
200
100
AcDbEntity
8
0
100
AcDbCircle
10
104.98814367956683
20
41.997937318571026
30
0
40
2.5
0
LINE
5
201
100
AcDbEntity
8
0
100
AcDbLine
10
223.99999999936685
20
37.509793638639373
30
0
11
223.99999999950282
21
59.509793638639366
31
0
0
CIRCLE
5
202
100
AcDbEntity
8
0
100
AcDbCircle
10
124.98814367956683
20
41.997937318571026
30
0
40
2.5
0
LINE
5
203
100
AcDbEntity
8
0
100
AcDbLine
10
243.99999999936685
20
37.509793638639373
30
0
11
243.99999999950282
21
59.509793638639366
31
0
0
CIRCLE
5
204
100
AcDbEntity
8
0
100
AcDbCircle
10
24.988143679566825
20
61.997937318571026
30
0
40
2.5
0
LINE
5
205
100
AcDbEntity
8
0
100
AcDbLine
10
143.99999999936685
20
57.509793638639373
30
0
11
143.99999999950282
21
79.509793638639366
31
0
0
CIRCLE
5
206
100
AcDbEntity
8
0
100
AcDbCircle
10
44.988143679566825
20
61.997937318571026
30
0
40
2.5
0
LINE
5
207
100
AcDbEntity
8
0
100
AcDbLine
10
163.99999999936685
20
57.509793638639373
30
0
11
163.99999999950282
21
79.509793638639366
31
0
0
CIRCLE
5
208
100
AcDbEntity
8
0
100
AcDbCircle
10
64.988143679566818
20
61.997937318571026
30
0
40
2.5
0
LINE
5
209
100
AcDbEntity
8
0
100
AcDbLine
10
183.99999999936685
20
57.509793638639373
30
0
11
183.99999999950282
21
79.509793638639366
31
0
0
CIRCLE
5
210
100
AcDbEntity
8
0
100
AcDbCircle
10
84.988143679566832
20
61.997937318571026
30
0
40
2.5
0
LINE
5
211
100
AcDbEntity
8
0
100
AcDbLine
10
203.99999999936685
20
57.509793638639373
30
0
11
203.99999999950282
21
79.509793638639366
31
0
0
CIRCLE
5
212
100
AcDbEntity
8
0
100
AcDbCircle
10
104.98814367956683
20
61.997937318571026
30
0
40
2.5
0
LINE
5
213
100
AcDbEntity
8
0
100
AcDbLine
10
223.99999999936685
20
57.509793638639373
30
0
11
223.99999999950282
21
79.509793638639366
31
0
0
CIRCLE
5
214
100
AcDbEntity
8
0
100
AcDbCircle
10
124.98814367956683
20
61.997937318571026
30
0
40
2.5
0
LINE
5
215
100
AcDbEntity
8
0
100
AcDbLine
10
243.99999999936685
20
57.509793638639373
30
0
11
243.99999999950282
21
79.509793638639366
31
0
0
ENDSEC
0
SECTION
2
OBJECTS
0
DICTIONARY
5
C
100
AcDbDictionary
3
ACAD_GROUP
350
D
3
ACAD_MLINESTYLE
350
17
0
DICTIONARY
5
D
100
AcDbDictionary
0
DICTIONARY
5
1A
330
C
100
AcDbDictionary
0
DICTIONARY
5
17
100
AcDbDictionary
0
ENDSEC
0
EOF
