0
SECTION
2
HEADER
9
$INSUNITS
70
4
9
$ACADVER
1
AC1014
9
$HANDSEED
5
FFFF
0
ENDSEC
0
SECTION
2
TABLES
0
TABLE
2
VPORT
5
8
100
AcDbSymbolTable
0
ENDTAB
0
TABLE
2
LTYPE
5
5
100
AcDbSymbolTable
0
LTYPE
5
14
100
AcDbSymbolTableRecord
100
AcDbLinetypeTableRecord
2
BYBLOCK
70
0
0
LTYPE
5
15
100
AcDbSymbolTableRecord
100
AcDbLinetypeTableRecord
2
BYLAYER
70
0
0
ENDTAB
0
TABLE
2
LAYER
5
2
100
AcDbSymbolTable
70
2
0
LAYER
5
50
100
AcDbSymbolTableRecord
100
AcDbLayerTableRecord
2
0
70
0
6
CONTINUOUS
0
ENDTAB
0
TABLE
2
STYLE
5
3
100
AcDbSymbolTable
70
1
0
STYLE
5
11
100
AcDbSymbolTableRecord
100
AcDbTextStyleTableRecord
2
STANDARD
70
0
0
ENDTAB
0
TABLE
2
VIEW
5
6
100
AcDbSymbolTable
70
0
0
ENDTAB
0
TABLE
2
UCS
5
7
100
AcDbSymbolTable
70
0
0
ENDTAB
0
TABLE
2
APPID
5
9
100
AcDbSymbolTable
70
2
0
APPID
5
12
100
AcDbSymbolTableRecord
100
AcDbRegAppTableRecord
2
ACAD
70
0
0
ENDTAB
0
TABLE
2
DIMSTYLE
5
A
100
AcDbSymbolTable
70
1
0
ENDTAB
0
TABLE
2
BLOCK_RECORD
5
1
100
AcDbSymbolTable
70
1
0
BLOCK_RECORD
5
1F
100
AcDbSymbolTableRecord
100
AcDbBlockTableRecord
2
*MODEL_SPACE
0
BLOCK_RECORD
5
1B
100
AcDbSymbolTableRecord
100
AcDbBlockTableRecord
2
*PAPER_SPACE
0
ENDTAB
0
ENDSEC
0
SECTION
2
BLOCKS
0
BLOCK
5
20
100
AcDbEntity
100
AcDbBlockBegin
2
*MODEL_SPACE
0
ENDBLK
5
21
100
AcDbEntity
100
AcDbBlockEnd
0
BLOCK
5
1C
100
AcDbEntity
100
AcDbBlockBegin
2
*PAPER_SPACE
0
ENDBLK
5
1D
100
AcDbEntity
100
AcDbBlockEnd
0
ENDSEC
0
SECTION
2
ENTITIES
0
CIRCLE
5
100
100
AcDbEntity
8
0
100
AcDbCircle
10
31.17811138136798
20
-284.99999999999989
30
0
40
2.4999999999999964
0
CIRCLE
5
101
100
AcDbEntity
8
0
100
AcDbCircle
10
111.17811138136798
20
-284.99999999999983
30
0
40
2.4999999999999938
0
CIRCLE
5
102
100
AcDbEntity
8
0
100
AcDbCircle
10
31.17811138136798
20
-14.999999999999893
30
0
40
2.4999999999999982
0
CIRCLE
5
103
100
AcDbEntity
8
0
100
AcDbCircle
10
111.17811138136798
20
-14.999999999999893
30
0
40
2.5000000000000036
0
LINE
5
104
100
AcDbEntity
8
0
100
AcDbLine
10
21.17811138136798
20
1.0658141036401503e-13
30
3.7361457722059069e-46
11
21.17811138136798
21
-299.99999999999994
31
3.7361457722059069e-46
0
LINE
5
105
100
AcDbEntity
8
0
100
AcDbLine
10
121.17811138136798
20
-299.99999999999994
30
2.1377689462890634e-45
11
121.17811138136798
21
1.0658141036401503e-13
31
2.1377689462890634e-45
0
LINE
5
106
100
AcDbEntity
8
0
100
AcDbLine
10
121.17811138136798
20
1.0658141036401503e-13
30
2.1377689462890634e-45
11
21.17811138136798
21
1.0658141036401503e-13
31
3.7361457722059069e-46
0
LINE
5
107
100
AcDbEntity
8
0
100
AcDbLine
10
116.98814367946206
20
-299.99999999999983
30
2.0638514480133324e-45
11
-60.503434899044265
21
-299.99999999999989
31
-1.0673739902079887e-45
0
LINE
5
108
100
AcDbEntity
8
0
100
AcDbLine
10
46.178111381367977
20
-284.99999999999989
30
0
11
46.178111381367955
21
-234.99999999999986
31
0
0
LINE
5
109
100
AcDbEntity
8
0
100
AcDbLine
10
56.178111381367884
20
-254.99999999999986
30
0
11
56.178111381367884
21
-204.99999999999986
31
0
0
LWPOLYLINE
5
110
100
AcDbEntity
8
0
100
AcDbPolyline
90
4
70
1
43
0.0
10
58.678111381367884
20
-204.99999999999986
10
58.678111381367884
20
-254.99999999999986
42
-0.99999999999999989
10
53.678111381367884
20
-254.99999999999986
10
53.678111381367884
20
-204.99999999999986
42
-0.99999999999999989
0
LINE
5
111
100
AcDbEntity
8
0
100
AcDbLine
10
56.178111381367884
20
-254.99999999999986
30
0
11
56.178111381367884
21
-204.99999999999986
31
0
0
LWPOLYLINE
5
112
100
AcDbEntity
8
0
100
AcDbPolyline
90
4
70
1
43
0.0
10
48.678111381367955
20
-234.99999999999986
10
48.678111381367977
20
-284.99999999999989
42
-0.99999999999999989
10
43.678111381367977
20
-284.99999999999989
10
43.678111381367955
20
-234.99999999999986
42
-0.99999999999999989
0
LINE
5
113
100
AcDbEntity
8
0
100
AcDbLine
10
46.178111381367977
20
-284.99999999999989
30
0
11
46.178111381367955
21
-234.99999999999986
31
0
0
LWPOLYLINE
5
114
100
AcDbEntity
8
0
100
AcDbPolyline
90
4
70
1
43
0.0
10
68.678111381367984
20
-284.99999999999989
42
-0.99999999999999989
10
63.678111381367977
20
-284.99999999999989
10
63.678111381367955
20
-234.99999999999986
42
-0.99999999999999989
10
68.678111381367955
20
-234.99999999999986
0
LWPOLYLINE
5
115
100
AcDbEntity
8
0
100
AcDbPolyline
90
4
70
1
43
0.0
10
73.678111381367884
20
-254.99999999999986
10
73.678111381367899
20
-204.99999999999986
42
-0.99999999999999989
10
78.67811138136787
20
-204.99999999999986
10
78.678111381367884
20
-254.99999999999986
42
-0.99999999999999989
0
LWPOLYLINE
5
116
100
AcDbEntity
8
0
100
AcDbPolyline
90
4
70
1
43
0.0
10
88.678111381367984
20
-284.99999999999989
42
-0.99999999999999989
10
83.678111381367984
20
-284.99999999999989
10
83.678111381367955
20
-234.99999999999986
42
-0.99999999999999989
10
88.678111381367955
20
-234.99999999999986
0
LWPOLYLINE
5
117
100
AcDbEntity
8
0
100
AcDbPolyline
90
4
70
1
43
0.0
10
93.67811138136787
20
-254.99999999999986
10
93.67811138136787
20
-204.99999999999986
42
-0.99999999999999989
10
98.67811138136787
20
-204.99999999999986
10
98.67811138136787
20
-254.99999999999986
42
-0.99999999999999989
0
LWPOLYLINE
5
118
100
AcDbEntity
8
0
100
AcDbPolyline
90
4
70
1
43
0.0
10
48.678111381367977
20
-224.99999999999986
42
-0.99999999999999989
10
43.678111381367977
20
-224.99999999999986
10
43.678111381367955
20
-174.99999999999986
42
-0.99999999999999989
10
48.678111381367955
20
-174.99999999999986
0
LWPOLYLINE
5
119
100
AcDbEntity
8
0
100
AcDbPolyline
90
4
70
1
43
0.0
10
53.678111381367884
20
-194.99999999999986
10
53.678111381367884
20
-144.99999999999986
42
-0.99999999999999989
10
58.678111381367884
20
-144.99999999999986
10
58.678111381367884
20
-194.99999999999986
42
-0.99999999999999989
0
LWPOLYLINE
5
120
100
AcDbEntity
8
0
100
AcDbPolyline
90
4
70
1
43
0.0
10
68.678111381367984
20
-224.99999999999986
42
-0.99999999999999989
10
63.678111381367977
20
-224.99999999999986
10
63.678111381367955
20
-174.99999999999986
42
-0.99999999999999989
10
68.678111381367955
20
-174.99999999999986
0
LWPOLYLINE
5
121
100
AcDbEntity
8
0
100
AcDbPolyline
90
4
70
1
43
0.0
10
73.678111381367884
20
-194.99999999999986
10
73.678111381367899
20
-144.99999999999986
42
-0.99999999999999989
10
78.67811138136787
20
-144.99999999999986
10
78.678111381367884
20
-194.99999999999986
42
-0.99999999999999989
0
LWPOLYLINE
5
122
100
AcDbEntity
8
0
100
AcDbPolyline
90
4
70
1
43
0.0
10
88.678111381367984
20
-224.99999999999986
42
-0.99999999999999989
10
83.678111381367984
20
-224.99999999999986
10
83.678111381367955
20
-174.99999999999986
42
-0.99999999999999989
10
88.678111381367955
20
-174.99999999999986
0
LWPOLYLINE
5
123
100
AcDbEntity
8
0
100
AcDbPolyline
90
4
70
1
43
0.0
10
93.67811138136787
20
-194.99999999999986
10
93.67811138136787
20
-144.99999999999986
42
-0.99999999999999989
10
98.67811138136787
20
-144.99999999999986
10
98.67811138136787
20
-194.99999999999986
42
-0.99999999999999989
0
LWPOLYLINE
5
124
100
AcDbEntity
8
0
100
AcDbPolyline
90
4
70
1
43
0.0
10
48.678111381367977
20
-164.99999999999986
42
-0.99999999999999989
10
43.678111381367977
20
-164.99999999999986
10
43.678111381367955
20
-114.99999999999986
42
-0.99999999999999989
10
48.678111381367955
20
-114.99999999999986
0
LWPOLYLINE
5
125
100
AcDbEntity
8
0
100
AcDbPolyline
90
4
70
1
43
0.0
10
53.678111381367884
20
-134.99999999999986
10
53.678111381367884
20
-84.999999999999858
42
-0.99999999999999989
10
58.678111381367884
20
-84.999999999999858
10
58.678111381367884
20
-134.99999999999986
42
-0.99999999999999989
0
LWPOLYLINE
5
126
100
AcDbEntity
8
0
100
AcDbPolyline
90
4
70
1
43
0.0
10
68.678111381367984
20
-164.99999999999986
42
-0.99999999999999989
10
63.678111381367977
20
-164.99999999999986
10
63.678111381367955
20
-114.99999999999986
42
-0.99999999999999989
10
68.678111381367955
20
-114.99999999999986
0
LWPOLYLINE
5
127
100
AcDbEntity
8
0
100
AcDbPolyline
90
4
70
1
43
0.0
10
73.678111381367884
20
-134.99999999999986
10
73.678111381367899
20
-84.999999999999858
42
-0.99999999999999989
10
78.67811138136787
20
-84.999999999999858
10
78.678111381367884
20
-134.99999999999986
42
-0.99999999999999989
0
LWPOLYLINE
5
128
100
AcDbEntity
8
0
100
AcDbPolyline
90
4
70
1
43
0.0
10
88.678111381367984
20
-164.99999999999986
42
-0.99999999999999989
10
83.678111381367984
20
-164.99999999999986
10
83.678111381367955
20
-114.99999999999986
42
-0.99999999999999989
10
88.678111381367955
20
-114.99999999999986
0
LWPOLYLINE
5
129
100
AcDbEntity
8
0
100
AcDbPolyline
90
4
70
1
43
0.0
10
93.67811138136787
20
-134.99999999999986
10
93.67811138136787
20
-84.999999999999858
42
-0.99999999999999989
10
98.67811138136787
20
-84.999999999999858
10
98.67811138136787
20
-134.99999999999986
42
-0.99999999999999989
0
LWPOLYLINE
5
130
100
AcDbEntity
8
0
100
AcDbPolyline
90
4
70
1
43
0.0
10
48.678111381367977
20
-104.99999999999986
42
-0.99999999999999989
10
43.678111381367977
20
-104.99999999999986
10
43.678111381367955
20
-54.999999999999858
42
-0.99999999999999989
10
48.678111381367955
20
-54.999999999999858
0
LWPOLYLINE
5
131
100
AcDbEntity
8
0
100
AcDbPolyline
90
4
70
1
43
0.0
10
53.678111381367884
20
-74.999999999999858
10
53.678111381367884
20
-24.999999999999858
42
-0.99999999999999989
10
58.678111381367884
20
-24.999999999999858
10
58.678111381367884
20
-74.999999999999858
42
-0.99999999999999989
0
LWPOLYLINE
5
132
100
AcDbEntity
8
0
100
AcDbPolyline
90
4
70
1
43
0.0
10
68.678111381367984
20
-104.99999999999986
42
-0.99999999999999989
10
63.678111381367977
20
-104.99999999999986
10
63.678111381367955
20
-54.999999999999858
42
-0.99999999999999989
10
68.678111381367955
20
-54.999999999999858
0
LWPOLYLINE
5
133
100
AcDbEntity
8
0
100
AcDbPolyline
90
4
70
1
43
0.0
10
73.678111381367884
20
-74.999999999999858
10
73.678111381367899
20
-24.999999999999858
42
-0.99999999999999989
10
78.67811138136787
20
-24.999999999999858
10
78.678111381367884
20
-74.999999999999858
42
-0.99999999999999989
0
LWPOLYLINE
5
134
100
AcDbEntity
8
0
100
AcDbPolyline
90
4
70
1
43
0.0
10
88.678111381367984
20
-104.99999999999986
42
-0.99999999999999989
10
83.678111381367984
20
-104.99999999999986
10
83.678111381367955
20
-54.999999999999858
42
-0.99999999999999989
10
88.678111381367955
20
-54.999999999999858
0
LWPOLYLINE
5
135
100
AcDbEntity
8
0
100
AcDbPolyline
90
4
70
1
43
0.0
10
93.67811138136787
20
-74.999999999999858
10
93.67811138136787
20
-24.999999999999858
42
-0.99999999999999989
10
98.67811138136787
20
-24.999999999999858
10
98.67811138136787
20
-74.999999999999858
42
-0.99999999999999989
0
LINE
5
136
100
AcDbEntity
8
0
100
AcDbLine
10
31.17811138136798
20
-284.99999999999989
30
0
11
31.17811138136798
21
-14.999999999999893
31
0
0
LINE
5
137
100
AcDbEntity
8
0
100
AcDbLine
10
31.17811138136798
20
-14.999999999999893
30
0
11
111.17811138136798
21
-14.999999999999893
31
0
0
LINE
5
138
100
AcDbEntity
8
0
100
AcDbLine
10
111.17811138136798
20
-14.999999999999893
30
0
11
111.17811138136798
21
-284.99999999999983
31
0
0
LINE
5
139
100
AcDbEntity
8
0
100
AcDbLine
10
111.17811138136798
20
-284.99999999999983
30
0
11
111.17811138136798
21
-14.999999999999893
31
0
0
CIRCLE
5
140
100
AcDbEntity
8
0
100
AcDbCircle
10
111.17811138136798
20
-149.99999999999986
30
0
40
2.4999999999999991
0
CIRCLE
5
141
100
AcDbEntity
8
0
100
AcDbCircle
10
31.17811138136798
20
-149.99999999999989
30
0
40
2.4999999999999982
0
ENDSEC
0
SECTION
2
OBJECTS
0
DICTIONARY
5
C
100
AcDbDictionary
3
ACAD_GROUP
350
D
3
ACAD_MLINESTYLE
350
17
0
DICTIONARY
5
D
100
AcDbDictionary
0
DICTIONARY
5
1A
330
C
100
AcDbDictionary
0
DICTIONARY
5
17
100
AcDbDictionary
0
ENDSEC
0
EOF
