0
SECTION
2
HEADER
9
$INSUNITS
70
4
9
$ACADVER
1
AC1014
9
$HANDSEED
5
FFFF
0
ENDSEC
0
SECTION
2
TABLES
0
TABLE
2
VPORT
5
8
100
AcDbSymbolTable
0
ENDTAB
0
TABLE
2
LTYPE
5
5
100
AcDbSymbolTable
0
LTYPE
5
14
100
AcDbSymbolTableRecord
100
AcDbLinetypeTableRecord
2
BYBLOCK
70
0
0
LTYPE
5
15
100
AcDbSymbolTableRecord
100
AcDbLinetypeTableRecord
2
BYLAYER
70
0
0
ENDTAB
0
TABLE
2
LAYER
5
2
100
AcDbSymbolTable
70
2
0
LAYER
5
50
100
AcDbSymbolTableRecord
100
AcDbLayerTableRecord
2
0
70
0
6
CONTINUOUS
0
ENDTAB
0
TABLE
2
STYLE
5
3
100
AcDbSymbolTable
70
1
0
STYLE
5
11
100
AcDbSymbolTableRecord
100
AcDbTextStyleTableRecord
2
STANDARD
70
0
0
ENDTAB
0
TABLE
2
VIEW
5
6
100
AcDbSymbolTable
70
0
0
ENDTAB
0
TABLE
2
UCS
5
7
100
AcDbSymbolTable
70
0
0
ENDTAB
0
TABLE
2
APPID
5
9
100
AcDbSymbolTable
70
2
0
APPID
5
12
100
AcDbSymbolTableRecord
100
AcDbRegAppTableRecord
2
ACAD
70
0
0
ENDTAB
0
TABLE
2
DIMSTYLE
5
A
100
AcDbSymbolTable
70
1
0
ENDTAB
0
TABLE
2
BLOCK_RECORD
5
1
100
AcDbSymbolTable
70
1
0
BLOCK_RECORD
5
1F
100
AcDbSymbolTableRecord
100
AcDbBlockTableRecord
2
*MODEL_SPACE
0
BLOCK_RECORD
5
1B
100
AcDbSymbolTableRecord
100
AcDbBlockTableRecord
2
*PAPER_SPACE
0
ENDTAB
0
ENDSEC
0
SECTION
2
BLOCKS
0
BLOCK
5
20
100
AcDbEntity
100
AcDbBlockBegin
2
*MODEL_SPACE
0
ENDBLK
5
21
100
AcDbEntity
100
AcDbBlockEnd
0
BLOCK
5
1C
100
AcDbEntity
100
AcDbBlockBegin
2
*PAPER_SPACE
0
ENDBLK
5
1D
100
AcDbEntity
100
AcDbBlockEnd
0
ENDSEC
0
SECTION
2
ENTITIES
0
CIRCLE
5
100
100
AcDbEntity
8
0
100
AcDbCircle
10
31.178111381760583
20
77.261958328974586
30
0
40
2.4999999999999956
0
CIRCLE
5
101
100
AcDbEntity
8
0
100
AcDbCircle
10
31.178111381759418
20
-113.73804167102534
30
0
40
2.4999999999999822
0
CIRCLE
5
102
100
AcDbEntity
8
0
100
AcDbCircle
10
111.17811138176063
20
77.261958328974146
30
9.8607613152626476e-31
40
2.5000000000000178
0
CIRCLE
5
103
100
AcDbEntity
8
0
100
AcDbCircle
10
111.17811138175915
20
-113.73804167102594
30
9.8607613152626476e-31
40
2.5
0
LWPOLYLINE
5
104
100
AcDbEntity
8
0
100
AcDbPolyline
90
16
70
1
43
0.0
10
123.17811138163015
20
93.26195832897406
10
150.1899677025759
20
66.250102008028634
10
150.18996770244109
20
44.250102008027987
42
-0.19891236737972517
10
142.86763723199479
20
26.572432478403098
10
140.37949355237541
20
24.084288798795722
42
-0.1989123673797171
10
122.70182402264849
20
16.761958328558876
10
80.18996770216836
20
16.76195832882323
10
80.18996770216836
20
-53.238041670863659
10
122.70182402172587
20
-53.238041670849668
42
-0.19891236737966145
10
140.37949355142248
20
-60.560372141198826
10
142.86763723133498
20
-63.048515821112126
42
-0.19891236738126433
10
150.18996770167118
20
-80.726185350930137
10
150.18996770153518
20
-102.72618535093014
10
123.17811138162925
20
-129.73804167089685
10
15.17811138189067
20
-129.73804167102341
10
15.178111381629371
20
93.2619583289747
0
CIRCLE
5
105
100
AcDbEntity
8
0
100
AcDbCircle
10
31.178111381865538
20
-58.23804167100397
30
0
40
2.5
0
CIRCLE
5
106
100
AcDbEntity
8
0
100
AcDbCircle
10
31.178111381865538
20
-58.23804167100397
30
1.4118283701934971e-15
40
2.5
0
CIRCLE
5
107
100
AcDbEntity
8
0
100
AcDbCircle
10
31.178111381865538
20
-58.23804167100397
30
1.4118283701934971e-15
40
2.5
0
CIRCLE
5
108
100
AcDbEntity
8
0
100
AcDbCircle
10
51.178111381865534
20
-58.23804167100397
30
0
40
2.5
0
CIRCLE
5
109
100
AcDbEntity
8
0
100
AcDbCircle
10
71.178111381865534
20
-58.23804167100397
30
0
40
2.5
0
CIRCLE
5
110
100
AcDbEntity
8
0
100
AcDbCircle
10
91.17811138186552
20
-58.23804167100397
30
0
40
2.5
0
CIRCLE
5
111
100
AcDbEntity
8
0
100
AcDbCircle
10
111.17811138186552
20
-58.23804167100397
30
0
40
2.5
0
CIRCLE
5
112
100
AcDbEntity
8
0
100
AcDbCircle
10
31.178111381865538
20
-38.23804167100397
30
0
40
2.5
0
CIRCLE
5
113
100
AcDbEntity
8
0
100
AcDbCircle
10
51.178111381865534
20
-38.23804167100397
30
0
40
2.5
0
CIRCLE
5
114
100
AcDbEntity
8
0
100
AcDbCircle
10
71.178111381865534
20
-38.23804167100397
30
0
40
2.5
0
CIRCLE
5
115
100
AcDbEntity
8
0
100
AcDbCircle
10
91.17811138186552
20
-38.23804167100397
30
0
40
2.5
0
CIRCLE
5
116
100
AcDbEntity
8
0
100
AcDbCircle
10
111.17811138186552
20
-38.23804167100397
30
0
40
2.5
0
CIRCLE
5
117
100
AcDbEntity
8
0
100
AcDbCircle
10
31.178111381865538
20
-18.238041671003966
30
0
40
2.5
0
CIRCLE
5
118
100
AcDbEntity
8
0
100
AcDbCircle
10
51.178111381865534
20
-18.238041671003966
30
0
40
2.5
0
CIRCLE
5
119
100
AcDbEntity
8
0
100
AcDbCircle
10
71.178111381865534
20
-18.238041671003966
30
0
40
2.5
0
CIRCLE
5
120
100
AcDbEntity
8
0
100
AcDbCircle
10
91.17811138186552
20
-18.238041671003966
30
0
40
2.5
0
CIRCLE
5
121
100
AcDbEntity
8
0
100
AcDbCircle
10
111.17811138186552
20
-18.238041671003966
30
0
40
2.5
0
CIRCLE
5
122
100
AcDbEntity
8
0
100
AcDbCircle
10
31.178111381865538
20
1.7619583289960339
30
0
40
2.5
0
CIRCLE
5
123
100
AcDbEntity
8
0
100
AcDbCircle
10
51.178111381865534
20
1.7619583289960339
30
0
40
2.5
0
CIRCLE
5
124
100
AcDbEntity
8
0
100
AcDbCircle
10
71.178111381865534
20
1.7619583289960339
30
0
40
2.5
0
CIRCLE
5
125
100
AcDbEntity
8
0
100
AcDbCircle
10
91.17811138186552
20
1.7619583289960339
30
0
40
2.5
0
CIRCLE
5
126
100
AcDbEntity
8
0
100
AcDbCircle
10
111.17811138186552
20
1.7619583289960339
30
0
40
2.5
0
CIRCLE
5
127
100
AcDbEntity
8
0
100
AcDbCircle
10
31.178111381865538
20
21.761958328996034
30
0
40
2.5
0
CIRCLE
5
128
100
AcDbEntity
8
0
100
AcDbCircle
10
51.178111381865534
20
21.761958328996034
30
0
40
2.5
0
CIRCLE
5
129
100
AcDbEntity
8
0
100
AcDbCircle
10
71.178111381865534
20
21.761958328996034
30
0
40
2.5
0
CIRCLE
5
130
100
AcDbEntity
8
0
100
AcDbCircle
10
91.17811138186552
20
21.761958328996034
30
0
40
2.5
0
CIRCLE
5
131
100
AcDbEntity
8
0
100
AcDbCircle
10
111.17811138186552
20
21.761958328996034
30
0
40
2.5
0
CIRCLE
5
132
100
AcDbEntity
8
0
100
AcDbCircle
10
25.912977435375836
20
-98.238041671004112
30
0
40
1.4999999999999922
0
CIRCLE
5
133
100
AcDbEntity
8
0
100
AcDbCircle
10
25.912977435375836
20
-68.238041671004112
30
0
40
1.5000000000000022
0
CIRCLE
5
134
100
AcDbEntity
8
0
100
AcDbCircle
10
100.91297743537584
20
-98.238041671004112
30
0
40
1.5000000000000036
0
CIRCLE
5
135
100
AcDbEntity
8
0
100
AcDbCircle
10
100.91297743537584
20
-68.238041671004112
30
0
40
1.5000000000000056
0
CIRCLE
5
136
100
AcDbEntity
8
0
100
AcDbCircle
10
57.075767793011323
20
-113.73804167102548
30
0
40
7.9999999999999911
0
CIRCLE
5
137
100
AcDbEntity
8
0
100
AcDbCircle
10
83.109973008231023
20
-113.64895314100806
30
0
40
8.0000000000000036
0
CIRCLE
5
138
100
AcDbEntity
8
0
100
AcDbCircle
10
131.19790389794017
20
49.04772872908697
30
-9.8607613152626476e-31
40
11
0
CIRCLE
5
139
100
AcDbEntity
8
0
100
AcDbCircle
10
127.61799415052222
20
-67.077314163134957
30
0
40
8
0
CIRCLE
5
140
100
AcDbEntity
8
0
100
AcDbCircle
10
128.67811138186536
20
-92.762140418315866
30
0
40
8.0000000000000089
0
LWPOLYLINE
5
141
100
AcDbEntity
8
0
100
AcDbPolyline
90
4
70
1
43
0.0
10
42.487598798545761
20
30.059859647004956
10
25.487598798545761
20
30.059859647004956
10
25.487598798545761
20
64.05985964700497
10
42.487598798545761
20
64.05985964700497
0
LWPOLYLINE
5
142
100
AcDbEntity
8
0
100
AcDbPolyline
90
4
70
1
43
0.0
10
104.63158265281351
20
35.613823426251287
10
59.631582652813506
20
35.613823426251287
10
59.631582652813506
20
63.613823426251287
10
104.63158265281351
20
63.613823426251287
0
ENDSEC
0
SECTION
2
OBJECTS
0
DICTIONARY
5
C
100
AcDbDictionary
3
ACAD_GROUP
350
D
3
ACAD_MLINESTYLE
350
17
0
DICTIONARY
5
D
100
AcDbDictionary
0
DICTIONARY
5
1A
330
C
100
AcDbDictionary
0
DICTIONARY
5
17
100
AcDbDictionary
0
ENDSEC
0
EOF
